<svg xmlns="http://www.w3.org/2000/svg" width="64" height="64" viewBox="0 0 32 32"><path fill="currentColor" d="M17 30h-2v-2.041C9.18 27.477 4.524 22.82 4.042 17H2v-2h2.041C4.524 9.18 9.18 4.524 15 4.042V2h2v2.041C22.82 4.524 27.477 9.18 27.959 15H30v2h-2.041C27.477 22.82 22.82 27.477 17 27.959zm-2-8h2v3.95c4.717-.47 8.48-4.233 8.95-8.95H22v-2h3.95c-.47-4.717-4.233-8.48-8.95-8.95V10h-2V6.05c-4.717.47-8.48 4.233-8.95 8.95H10v2H6.05c.47 4.717 4.233 8.48 8.95 8.95zm3.828-1.758L16 17.414l-2.829 2.828l-1.414-1.414L14.585 16l-2.828-2.829l1.414-1.414L16 14.585l2.828-2.828l1.414 1.414L17.414 16l2.828 2.828z"/></svg>